# xmcd
#
# Track frame offsets: 
#        150
#        25839
#        50366
#        86743
#        97245
#        118584
#        156162
#        171389
#        217591
#        245830
#        270507
#        295785
#        320874
#
# Disc length: 4548 seconds
#
# Revision: 1
# Processed by: cddbd v1.5.2PL0 Copyright (c) Steve Scherf et al.
# Submitted via: ExactAudioCopy v1.0b3
#
DISCID=bc11c20d
DTITLE=Various Artist - Blues Paradise  vol.30
DYEAR=2003
DGENRE=Blues
TTITLE0=Barry Levenson and Jake Sampson - Real What You Saw
TTITLE1=Corey Stevens - Getaway
TTITLE2=Mick Moody and Bernie Marsden - A Mind To Gen Even
TTITLE3=Sean Costello - Jumpin` Salty
TTITLE4=Jay Gordon - Drippin Blues
TTITLE5=Gov`t Mule - No Need To Suffer
TTITLE6=The Mick Pini Band - Looking For Somebody
TTITLE7=Walter Trout And The Free Radicals - The Reason I`m Gone
TTITLE8=T. W. Henderson and The Blues of Cain - It Washn`t Me Who Brough
TTITLE8=t The Tears
TTITLE9=Vargas Blues Band - Buenos Airiers Blues
TTITLE10=Bernanrd Allison - Love In Free
TTITLE11=Gene Deer - Living With The Blues
TTITLE12=Larry Carlton - Crazy Mama
EXTD=
EXTT0=
EXTT1=
EXTT2=
EXTT3=
EXTT4=
EXTT5=
EXTT6=
EXTT7=
EXTT8=
EXTT9=
EXTT10=
EXTT11=
EXTT12=
PLAYORDER=
